<?xml version="1.0"?>
<svg xmlns="http://www.w3.org/2000/svg" xmlns:xlink="http://www.w3.org/1999/xlink" xmlns:svgjs="http://svgjs.com/svgjs" version="1.1" width="512" height="512" x="0" y="0" viewBox="0 0 512 512" style="enable-background:new 0 0 512 512" xml:space="preserve" class=""><g><g xmlns="http://www.w3.org/2000/svg" id="Chart"><path d="m360 256a120 120 0 1 0 -120-120 120.136 120.136 0 0 0 120 120zm0-224a104 104 0 1 1 -104 104 104.118 104.118 0 0 1 104-104z" fill="#159e49" data-original="#000000" style="" class=""/><path d="m464 464h-56v-184a8 8 0 0 0 -8-8h-80a8 8 0 0 0 -8 8v184h-32v-216a8 8 0 0 0 -8-8h-80a8 8 0 0 0 -8 8v216h-32v-312a8 8 0 0 0 -8-8h-80a8 8 0 0 0 -8 8v312h-40a8 8 0 0 0 0 16h448a8 8 0 0 0 0-16zm-392 0v-304h64v304zm128 0v-208h64v208zm128 0v-176h64v176z" fill="#159e49" data-original="#000000" style="" class=""/><path d="m496 464h-8a8 8 0 0 0 0 16h8a8 8 0 0 0 0-16z" fill="#159e49" data-original="#000000" style="" class=""/><path d="m360 232a96 96 0 1 0 -96-96 96.108 96.108 0 0 0 96 96zm0-176a80 80 0 1 1 -80 80 80.091 80.091 0 0 1 80-80z" fill="#159e49" data-original="#000000" style="" class=""/><path d="m336 160a8 8 0 0 0 0 16h16a8 8 0 0 0 16 0h16a8 8 0 0 0 8-8v-32a8 8 0 0 0 -8-8h-40v-16h40a8 8 0 0 0 0-16h-16a8 8 0 0 0 -16 0h-16a8 8 0 0 0 -8 8v32a8 8 0 0 0 8 8h40v16z" fill="#159e49" data-original="#000000" style="" class=""/></g></g></svg>
