<?xml version="1.0"?>
<svg xmlns="http://www.w3.org/2000/svg" xmlns:xlink="http://www.w3.org/1999/xlink" xmlns:svgjs="http://svgjs.com/svgjs" version="1.1" width="512" height="512" x="0" y="0" viewBox="0 0 512.001 512.001" style="enable-background:new 0 0 512 512" xml:space="preserve" class=""><g>
<g xmlns="http://www.w3.org/2000/svg">
	<g>
		<path d="M407.04,385.22c-4.539-3.148-10.77-2.016-13.915,2.523c-3.048,4.4-6.502,8.678-10.271,12.717    c-2.525,2.709-5.999,5.975-9.779,9.191c-4.206,3.58-4.714,9.891-1.135,14.098c1.978,2.324,4.791,3.518,7.621,3.518    c2.291,0,4.594-0.783,6.477-2.385c4.41-3.754,8.369-7.482,11.443-10.783c4.422-4.738,8.488-9.773,12.084-14.965    C412.71,394.595,411.58,388.365,407.04,385.22z" fill="#159e49" data-original="#000000" style="" class=""/>
	</g>
</g>
<g xmlns="http://www.w3.org/2000/svg">
	<g>
		<path d="M363.474,430.058c-2.346-5-8.298-7.152-13.3-4.807l-0.313,0.141c-5.053,2.229-7.341,8.133-5.11,13.186    c1.65,3.74,5.312,5.965,9.153,5.965c1.349,0,2.72-0.275,4.032-0.854c0.244-0.107,0.486-0.217,0.729-0.33    C363.665,441.013,365.818,435.06,363.474,430.058z" fill="#159e49" data-original="#000000" style="" class=""/>
	</g>
</g>
<g xmlns="http://www.w3.org/2000/svg">
	<g>
		<path d="M482.126,26.001H29.875C13.401,26.001,0,39.404,0,55.876v280.252c0,16.471,13.401,29.873,29.875,29.873h210.586    c8.927,37.77,29.114,64.52,46.757,81.658C312.97,472.677,342.49,486,353.899,486c11.408,0,40.928-13.322,66.681-38.34    c17.643-17.139,37.831-43.889,46.757-81.658h14.789c16.473,0,29.875-13.402,29.875-29.873V55.876    C512.001,39.404,498.599,26.001,482.126,26.001z M452,325.019c0.001,52.688-24.32,87.637-44.724,107.678    c-24.203,23.773-49.03,33.02-53.377,33.301c-4.348-0.281-29.176-9.527-53.379-33.301c-20.402-20.041-44.723-54.99-44.723-107.678    v-49.246c34.43-9.957,66.646-23.584,98.105-41.492c30.75,17.453,64.41,31.686,98.098,41.486V325.019z M492.001,336.128    c0,5.444-4.431,9.873-9.875,9.873h-11.311c0.766-6.701,1.186-13.689,1.186-20.982v-56.828c0-4.514-3.024-8.467-7.379-9.65    c-36.313-9.861-72.854-25.227-105.672-44.436c-3.12-1.826-6.982-1.824-10.104,0.002c-33.748,19.754-68.313,34.287-105.67,44.434    c-4.355,1.184-7.379,5.137-7.379,9.65v56.828c0,7.293,0.419,14.281,1.186,20.982H29.875c-5.445,0-9.875-4.43-9.875-9.873V165.999    h472.001V336.128z M492.001,146H20v-39.998h472.001V146z M492.001,86.001H20V55.876c0-5.445,4.43-9.875,9.875-9.875h452.251    c5.444,0,9.875,4.43,9.875,9.875V86.001z" fill="#159e49" data-original="#000000" style="" class=""/>
	</g>
</g>
<g xmlns="http://www.w3.org/2000/svg">
	<g>
		<path d="M119.997,236.003c-6.029,0-11.982,1.219-17.492,3.543c-5.383-2.281-11.299-3.543-17.503-3.543    c-24.813,0-45.001,20.186-45.001,44.998s20.187,45,45.001,45c6.204,0,12.12-1.262,17.502-3.543    c5.511,2.324,11.464,3.543,17.493,3.543c24.814,0,45.002-20.188,45.002-45S144.811,236.003,119.997,236.003z M85.002,306.001    c-13.786,0-25.001-11.214-25.001-25c0-13.785,11.215-24.998,25.001-24.998c13.784,0,24.999,11.213,24.999,24.998    C110.001,294.786,98.786,306.001,85.002,306.001z M122.476,305.879c4.75-7.131,7.525-15.686,7.525-24.877    c0-9.191-2.775-17.744-7.524-24.875c12.625,1.248,22.521,11.928,22.521,24.875C144.998,293.949,135.102,304.63,122.476,305.879z" fill="#159e49" data-original="#000000" style="" class=""/>
	</g>
</g>
<g xmlns="http://www.w3.org/2000/svg">
	<g>
		<path d="M101.436,191.001H49.999c-5.523,0-10,4.477-10,10c0,5.522,4.477,10,10,10h51.437c5.523,0,10-4.479,10-10    C111.436,195.478,106.959,191.001,101.436,191.001z" fill="#159e49" data-original="#000000" style="" class=""/>
	</g>
</g>
<g xmlns="http://www.w3.org/2000/svg">
	<g>
		<path d="M130.996,191.001h-0.474c-5.523,0-10,4.477-10,10c0,5.522,4.477,10,10,10h0.474c5.522,0,10-4.479,10-10    C140.996,195.478,136.518,191.001,130.996,191.001z" fill="#159e49" data-original="#000000" style="" class=""/>
	</g>
</g>
<g xmlns="http://www.w3.org/2000/svg">
	<g>
		<path d="M408.79,302.026c-3.903-3.903-10.234-3.905-14.141-0.001l-53.477,53.473l-28.023-28.025    c-3.906-3.902-10.238-3.904-14.143,0c-3.905,3.906-3.906,10.238,0,14.143l35.095,35.096c1.953,1.953,4.512,2.93,7.071,2.93    s5.119-0.977,7.07-2.93l60.547-60.543C412.695,312.265,412.695,305.933,408.79,302.026z" fill="#159e49" data-original="#000000" style="" class=""/>
	</g>
</g>
<g xmlns="http://www.w3.org/2000/svg">
</g>
<g xmlns="http://www.w3.org/2000/svg">
</g>
<g xmlns="http://www.w3.org/2000/svg">
</g>
<g xmlns="http://www.w3.org/2000/svg">
</g>
<g xmlns="http://www.w3.org/2000/svg">
</g>
<g xmlns="http://www.w3.org/2000/svg">
</g>
<g xmlns="http://www.w3.org/2000/svg">
</g>
<g xmlns="http://www.w3.org/2000/svg">
</g>
<g xmlns="http://www.w3.org/2000/svg">
</g>
<g xmlns="http://www.w3.org/2000/svg">
</g>
<g xmlns="http://www.w3.org/2000/svg">
</g>
<g xmlns="http://www.w3.org/2000/svg">
</g>
<g xmlns="http://www.w3.org/2000/svg">
</g>
<g xmlns="http://www.w3.org/2000/svg">
</g>
<g xmlns="http://www.w3.org/2000/svg">
</g>
</g></svg>
