<?xml version="1.0"?>
<svg xmlns="http://www.w3.org/2000/svg" xmlns:xlink="http://www.w3.org/1999/xlink" xmlns:svgjs="http://svgjs.com/svgjs" version="1.1" width="512" height="512" x="0" y="0" viewBox="0 0 64 64" style="enable-background:new 0 0 512 512" xml:space="preserve" class=""><g><g xmlns="http://www.w3.org/2000/svg"><path d="m33 43h-2v2c-1.654 0-3 1.346-3 3s1.346 3 3 3h2c.551 0 1 .449 1 1s-.449 1-1 1h-3v-1h-2v3h3v2h2v-2c1.654 0 3-1.346 3-3s-1.346-3-3-3h-2c-.551 0-1-.449-1-1s.449-1 1-1h3v1h2v-3h-3z" fill="#159e49" data-original="#000000" style="" class=""/><path d="m14 27h2v-2c1.654 0 3-1.346 3-3s-1.346-3-3-3h-2c-.551 0-1-.449-1-1s.449-1 1-1h3v1h2v-3h-3v-2h-2v2c-1.654 0-3 1.346-3 3s1.346 3 3 3h2c.551 0 1 .449 1 1s-.449 1-1 1h-3v-1h-2v3h3z" fill="#159e49" data-original="#000000" style="" class=""/><path d="m15 31c5.67 0 10.35-4.313 10.936-9.831 1.74 1.154 3.824 1.831 6.064 1.831s4.324-.677 6.064-1.831c.586 5.518 5.266 9.831 10.936 9.831 6.065 0 11-4.935 11-11s-4.935-11-11-11c-2.188 0-4.281.637-6.065 1.822-.591-5.513-5.268-9.822-10.935-9.822s-10.344 4.309-10.935 9.822c-1.784-1.185-3.877-1.822-6.065-1.822-6.065 0-11 4.935-11 11s4.935 11 11 11zm43-11c0 4.962-4.038 9-9 9s-9-4.038-9-9c0-.169.015-.335.026-.502 1.538-1.645 2.576-3.757 2.875-6.102 1.668-1.542 3.817-2.396 6.099-2.396 4.962 0 9 4.038 9 9zm-26-17c4.962 0 9 4.038 9 9s-4.038 9-9 9-9-4.038-9-9 4.038-9 9-9zm-17 8c2.282 0 4.431.854 6.099 2.397.299 2.345 1.337 4.456 2.875 6.102.011.166.026.332.026.501 0 4.962-4.038 9-9 9s-9-4.038-9-9 4.038-9 9-9z" fill="#159e49" data-original="#000000" style="" class=""/><path d="m32 19c2.206 0 4-1.794 4-4h-2c0 1.103-.897 2-2 2s-2-.897-2-2h2v-2h-2v-2h2v-2h-2c0-1.103.897-2 2-2s2 .897 2 2h2c0-2.206-1.794-4-4-4s-4 1.794-4 4h-2v2h2v2h-2v2h2c0 2.206 1.794 4 4 4z" fill="#159e49" data-original="#000000" style="" class=""/><path d="m47.72 19h-1.72v2h2v2h-2v2h2v2h2v-2h2v-2h-2v-2h2v-2h-1.72l3.501-4.375-1.562-1.25-3.219 4.024-3.219-4.024-1.562 1.25z" fill="#159e49" data-original="#000000" style="" class=""/><path d="m63 46c0-1.654-1.346-3-3-3h-16c-.993 0-1.868.49-2.414 1.236l-4.478-6.397 3.182-9.547-5.826-1.457-1.588 3.176-1.402-2.104-7.836 1.306 3.242 8.645-4.464 6.378c-.06-.082-.126-.16-.195-.236.48-.532.78-1.229.78-2v-2c0-1.654-1.346-3-3-3h-16.001c-1.654 0-3 1.346-3 3v2c0 .771.301 1.468.78 2-.479.532-.78 1.229-.78 2v2c0 .771.301 1.468.78 2-.479.532-.78 1.229-.78 2v2c0 .771.301 1.468.78 2-.479.532-.78 1.229-.78 2v2c0 1.654 1.346 3 3 3h16c1.654 0 3-1.346 3-3v-.87c2.133 2.369 5.213 3.87 8.645 3.87h.711c3.432 0 6.512-1.501 8.645-3.87v.87c0 1.654 1.346 3 3 3h16c1.654 0 3-1.346 3-3v-2c0-.771-.301-1.468-.78-2 .48-.532.78-1.229.78-2v-2c0-.771-.301-1.468-.78-2 .48-.532.78-1.229.78-2v-2zm-19-1h1v2h2v-2h2v2h2v-2h2v2h2v-2h2v2h2v-2h1c.551 0 1 .449 1 1v2c0 .551-.449 1-1 1h-16c-.081 0-.162.011-.243.017-.166-.815-.42-1.606-.757-2.367v-.65c0-.551.449-1 1-1zm-13.474-14.907 2.598 3.896 2.412-4.824 2.174.543-2.431 7.292h-6.586l-2.33-6.213zm-26.526 18.907c-.551 0-1-.449-1-1v-2c0-.551.449-1 1-1h1v2h2v-2h2v2h2v-2h2v2h2v-2h2v2h2v-2h1c.551 0 1 .449 1 1v.651c-.335.755-.587 1.541-.754 2.349h-.246zm-1-9c0-.551.449-1 1-1h1v2h2v-2h2v2h2v-2h2v2h2v-2h2v2h2v-2h1c.551 0 1 .449 1 1v2c0 .551-.449 1-1 1h-16c-.551 0-1-.449-1-1zm18 20c0 .551-.449 1-1 1h-16c-.551 0-1-.449-1-1v-2c0-.551.449-1 1-1h1v2h2v-2h2v2h2v-2h2v2h2v-2h2v2h2v-2h1c.551 0 1 .449 1 1zm-1-5h-16c-.551 0-1-.449-1-1v-2c0-.551.449-1 1-1h1v2h2v-2h2v2h2v-2h2v2h2v-2h2v2h2v-2h1 .013c-.003.119-.013.236-.013.355 0 1.298.223 2.543.616 3.709-.199-.041-.405-.064-.616-.064zm12.355 6h-.711c-5.317 0-9.644-4.327-9.644-9.645 0-1.989.603-3.901 1.744-5.531l4.777-6.824h6.959l4.777 6.824c1.14 1.63 1.743 3.543 1.743 5.531 0 5.318-4.327 9.645-9.645 9.645zm11.645-9.645c0-.118-.01-.236-.013-.354.004.001.008-.001.013-.001h1v2h2v-2h2v2h2v-2h2v2h2v-2h2v2h2v-2h1c.551 0 1 .449 1 1v2c0 .551-.449 1-1 1h-16c-.211 0-.417.023-.616.065.393-1.167.616-2.412.616-3.71zm17 8.645c0 .551-.449 1-1 1h-16c-.551 0-1-.449-1-1v-2c0-.551.449-1 1-1h1v2h2v-2h2v2h2v-2h2v2h2v-2h2v2h2v-2h1c.551 0 1 .449 1 1z" fill="#159e49" data-original="#000000" style="" class=""/></g></g></svg>
