<?xml version="1.0"?>
<svg xmlns="http://www.w3.org/2000/svg" xmlns:xlink="http://www.w3.org/1999/xlink" xmlns:svgjs="http://svgjs.com/svgjs" version="1.1" width="512" height="512" x="0" y="0" viewBox="0 0 512.176 512.176" style="enable-background:new 0 0 512 512" xml:space="preserve" class=""><g><g xmlns="http://www.w3.org/2000/svg"><path d="m490.597 229.926c-.824-39.916-11.863-79.036-31.984-113.401 16.372-78.318-66.438-142.004-137.757-106.391-67.231-20.045-145.397-9.386-207.055 38.348-7.822 5.998 1.629 17.651 9.127 11.904 18.936-14.519 39.914-25.775 62.351-33.458 23.393-8.01 47.891-11.955 72.832-11.743 15.593.136 31.089 1.922 46.192 5.314-5.892 4.573-11.244 9.809-15.944 15.595-116.67-19.932-227.73 70.287-233.053 187.509-6.151-.299-12.49.129-18.437 1.751 2.071-49.716 21.024-97.898 52.746-133.438 6.458-7.234-4.733-17.222-11.19-9.988-35.645 39.934-56.25 94.664-56.737 150.499-13.04 9.013-21.6 24.065-21.6 41.08v72.473c0 32.031 27.274 50.647 56.824 49.903 10.456 30.212 54.534 23.649 55.284-8.769v-157.316c.335-20.033-21.455-34.271-39.621-25.992 15.261-95.771 107.626-166.822 206.404-153.895-21.202 36.197-14.085 87.041 16.619 116.218v20.365c1.001 6.031 4.474 8.334 10.419 6.909l18.256-7.713c34.436 16.133 79.301 7.894 105.602-17.894 4.526 11.694 7.832 23.754 9.896 36.084-18.182-8.411-40.125 5.782-39.789 25.917v157.316c-.216 21.332 23.582 35.305 42.039 24.797-.038 6.627-.159 13.252-.419 19.812-1.786 21.488-18.354 39.53-39.484 43.014-6.714.66-14.371.916-23.735.782-3.357-12.323-14.646-21.409-28.018-21.409h-39.825c-38.507 1.59-38.516 56.474 0 58.067h39.823c13.461 0 24.811-9.208 28.084-21.656 8.463.114 17.423.411 25.826-.938 28.025-4.484 50.411-28.375 52.685-56.808.008-.1-.004-.199 0-.298.522-13.051.128-26.232 0-39.168 28.989 1.405 55.13-19.722 55.13-49.903v-72.473c0-16.968-8.512-31.985-21.491-41.006zm-475.509 116.054v-72.473c0-21.864 19.243-36.09 39.907-34.903v142.279c-20.675 1.146-39.907-12.972-39.907-34.903zm68.772-129.518c7.354 0 13.336 5.983 13.336 13.336v157.316c-.735 17.697-25.944 17.682-26.672 0v-157.316c0-7.354 5.983-13.336 13.336-13.336zm266.503 280.714h-39.823c-7.738 0-14.034-6.295-14.034-14.034s6.295-14.034 14.034-14.034h39.823c18.607.767 18.622 27.296 0 28.068zm124.956-274.393c-5.953-1.626-12.299-2.053-18.456-1.754-1.537-22.706-6.857-44.738-15.849-65.616 4.451-5.89 8.246-12.301 11.275-19.125 13.516 26.871 21.38 56.357 23.03 86.495zm-111.686-43.764c-12.595 0-24.679-2.784-35.917-8.273-2.058-.955-4.128-1.011-6.211-.17l-10.907 4.608v-12.267c0-2.098-.878-4.1-2.422-5.52-54.61-50.116-18.744-142.261 55.458-142.22 108.696 4.497 108.671 159.357-.001 163.842zm133.455 164.386c0 22.101-19.513 36.16-40.304 34.903-.094-8.06-.147-16.12-.132-24.18 0-9.697-15-9.697-15 0v32.985c0 7.354-5.983 13.336-13.336 13.336s-13.336-5.982-13.336-13.336v-157.315c.712-17.649 25.924-17.73 26.672 0v84.404c0 9.697 15 9.697 15 0v-78.173c20.842-1.18 40.436 12.611 40.436 34.903z" fill="#159e49" data-original="#000000" style="" class=""/><path d="m324.32 422.505c5.945 1.425 9.418-.877 10.419-6.909v-24.488c71.851-69.86 21.718-193.315-78.652-193.186-62.098-.001-112.62 50.513-112.62 112.601-.952 80.556 85.913 136.642 158.867 102.694zm-25.439-24.237c-63.421 31.937-141.285-16.659-140.413-87.746-.001-53.817 43.792-97.601 97.62-97.601 88.413-.04 131.135 109.743 66.073 169.443-1.544 1.42-2.422 3.422-2.422 5.52v16.402l-14.647-6.188c-1.997-.844-4.263-.782-6.211.17z" fill="#159e49" data-original="#000000" style="" class=""/><path d="m236.028 275.956h40.121c9.697 0 9.697-15 0-15h-40.121c-9.698 0-9.698 15 0 15z" fill="#159e49" data-original="#000000" style="" class=""/><path d="m276.149 345.09h-40.121c-9.697 0-9.697 15 0 15h40.121c9.697 0 9.697-15 0-15z" fill="#159e49" data-original="#000000" style="" class=""/><path d="m297.613 303.023h-83.05c-9.697 0-9.697 15 0 15h83.05c9.697 0 9.697-15 0-15z" fill="#159e49" data-original="#000000" style="" class=""/><path d="m364.29 39.861c-17.716-.339-32.693 14.31-32.693 32.029 0 9.697 15 9.697 15 0 0-9.233 8.128-17.234 17.391-17.032 8.88.179 16.197 7.258 16.657 16.116.5 9.63-7.356 17.952-17.012 17.952-4.142 0-7.5 3.358-7.5 7.5v25.656c0 4.142 3.358 7.5 7.5 7.5s7.5-3.358 7.5-7.5v-19.056c14.815-3.593 25.282-17.596 24.491-32.83-.865-16.673-14.629-29.998-31.334-30.335z" fill="#159e49" data-original="#000000" style="" class=""/><path d="m363.633 140.331c-9.652 0-9.668 15 0 15 9.651 0 9.667-15 0-15z" fill="#159e49" data-original="#000000" style="" class=""/></g></g></svg>
