<?xml version="1.0" encoding="utf-8"?>
<!-- Generator: Adobe Illustrator 16.0.0, SVG Export Plug-In . SVG Version: 6.00 Build 0)  -->
<!DOCTYPE svg PUBLIC "-//W3C//DTD SVG 1.1//EN" "http://www.w3.org/Graphics/SVG/1.1/DTD/svg11.dtd">
<svg version="1.1" id="Layer_1" xmlns:svgjs="http://svgjs.com/svgjs"
	 xmlns="http://www.w3.org/2000/svg" xmlns:xlink="http://www.w3.org/1999/xlink" x="0px" y="0px" width="512px" height="512px"
	 viewBox="0 0 512 512" enable-background="new 0 0 512 512" xml:space="preserve">
<g>
	<path fill="#2980B9" d="M245.333,394.666h-64c-5.888,0-10.667-4.777-10.667-10.666s4.779-10.666,10.667-10.666h64
		c5.888,0,10.667,4.777,10.667,10.666S251.221,394.666,245.333,394.666z"/>
	<path fill="#2980B9" d="M245.333,448h-42.667c-17.643,0-32-14.357-32-32v-64c0-17.643,14.357-32,32-32h42.667
		c5.888,0,10.667,4.779,10.667,10.666c0,5.889-4.779,10.668-10.667,10.668h-42.667c-5.888,0-10.667,4.799-10.667,10.666v64
		c0,5.866,4.779,10.667,10.667,10.667h42.667c5.888,0,10.667,4.778,10.667,10.666C256,443.222,251.221,448,245.333,448z"/>
	<path fill="#2980B9" d="M74.667,448C68.779,448,64,443.222,64,437.333V330.666C64,324.779,68.779,320,74.667,320
		c5.888,0,10.667,4.779,10.667,10.666v106.667C85.333,443.222,80.555,448,74.667,448z"/>
	<path fill="#2980B9" d="M138.667,448c-2.411,0-4.821-0.811-6.827-2.475l-64-53.334C65.408,390.166,64,387.157,64,384
		s1.408-6.166,3.84-8.191l64-53.334c4.544-3.775,11.264-3.136,15.04,1.344c3.776,4.523,3.157,11.243-1.365,15.02L91.328,384
		l54.165,45.142c4.523,3.775,5.142,10.496,1.366,15.019C144.747,446.678,141.717,448,138.667,448z"/>
	<path fill="#2980B9" d="M320,394.666c-3.755,0-7.211-1.962-9.152-5.184l-32-53.333c-3.029-5.034-1.387-11.605,3.648-14.635
		c5.057-3.071,11.584-1.365,14.635,3.669L320,363.264l22.848-38.08c3.029-5.034,9.579-6.72,14.635-3.669
		c5.057,3.029,6.678,9.579,3.648,14.635l-32,53.333C327.211,392.704,323.755,394.666,320,394.666z"/>
	<path fill="#2980B9" d="M320,448c-5.888,0-10.667-4.778-10.667-10.667V384c0-5.889,4.779-10.666,10.667-10.666
		s10.667,4.777,10.667,10.666v53.333C330.667,443.222,325.888,448,320,448z"/>
	<path fill="#2980B9" d="M373.333,512h-320C23.936,512,0,488.085,0,458.667V53.333C0,23.915,23.936,0,53.333,0h256
		C315.222,0,320,4.779,320,10.667c0,5.888-4.778,10.667-10.667,10.667h-256c-17.643,0-32,14.357-32,32v405.333
		c0,17.643,14.357,32,32,32h320c17.643,0,32-14.357,32-32V288c0-5.889,4.779-10.666,10.667-10.666s10.667,4.777,10.667,10.666
		v170.667C426.667,488.085,402.73,512,373.333,512z"/>
	<path fill="#2980B9" d="M480,234.667H352c-17.643,0-32-14.357-32-32v-85.333c0-17.643,14.357-32,32-32h128
		c17.643,0,32,14.357,32,32v85.333C512,220.31,497.643,234.667,480,234.667z M352,106.667c-5.888,0-10.667,4.8-10.667,10.667v85.333
		c0,5.867,4.779,10.667,10.667,10.667h128c5.888,0,10.667-4.8,10.667-10.667v-85.333c0-5.867-4.779-10.667-10.667-10.667H352z"/>
	<path fill="#2980B9" d="M458.667,106.667h-85.334c-5.888,0-10.666-4.778-10.666-10.667V53.333C362.667,23.915,386.603,0,416,0
		s53.333,23.915,53.333,53.333V96C469.333,101.888,464.555,106.667,458.667,106.667z M384,85.333h64v-32c0-17.643-14.357-32-32-32
		s-32,14.357-32,32V85.333z"/>
</g>
</svg>
