<?xml version="1.0" encoding="utf-8"?>
<!-- Generator: Adobe Illustrator 16.0.0, SVG Export Plug-In . SVG Version: 6.00 Build 0)  -->
<!DOCTYPE svg PUBLIC "-//W3C//DTD SVG 1.1//EN" "http://www.w3.org/Graphics/SVG/1.1/DTD/svg11.dtd">
<svg version="1.1" id="Layer_1" xmlns:svgjs="http://svgjs.com/svgjs"
	 xmlns="http://www.w3.org/2000/svg" xmlns:xlink="http://www.w3.org/1999/xlink" x="0px" y="0px" width="512px" height="512px"
	 viewBox="0 0 512 512" enable-background="new 0 0 512 512" xml:space="preserve">
<g>
	<g>
		<g>
			<path fill="#2980B9" d="M334.974,0c-95.418,0-173.049,77.63-173.049,173.049c0,21.213,3.769,41.827,11.211,61.403L7.672,399.928
				c-2.365,2.366-3.694,5.573-3.694,8.917v90.544c0,6.965,5.646,12.611,12.611,12.611h74.616c3.341,0,6.545-1.325,8.91-3.686
				l25.145-25.107c2.37-2.366,3.701-5.577,3.701-8.925v-30.876h30.837c6.965,0,12.611-5.646,12.611-12.611v-12.36h12.361
				c6.964,0,12.611-5.646,12.611-12.61v-27.137h27.136c3.344,0,6.551-1.328,8.917-3.693l40.121-40.121
				c19.579,7.449,40.196,11.223,61.417,11.223c95.419,0,173.05-77.63,173.05-173.049C508.022,77.63,430.393,0,334.974,0z
				 M334.974,320.874c-20.642,0-40.605-4.169-59.339-12.394c-4.844-2.125-10.299-0.955-13.871,2.525
				c-0.039,0.037-0.076,0.066-0.115,0.105l-42.354,42.354h-34.523c-6.965,0-12.611,5.646-12.611,12.611v27.136H159.8
				c-6.964,0-12.611,5.646-12.611,12.611v12.359h-30.838c-6.964,0-12.611,5.646-12.611,12.611v38.257l-17.753,17.726H29.202v-17.821
				l154.141-154.14c4.433-4.434,4.433-11.619,0-16.051c-4.433-4.433-11.617-4.435-16.053,0L29.202,436.854V414.07l167.696-167.708
				c0.038-0.038,0.067-0.073,0.102-0.11c3.482-3.569,4.656-9.024,2.53-13.872c-8.216-18.732-12.38-38.695-12.38-59.33
				c0-81.512,66.315-147.827,147.827-147.827c81.513,0,147.825,66.314,147.825,147.827
				C482.8,254.56,416.484,320.874,334.974,320.874z"/>
		</g>
	</g>
	<g>
		<g>
			<path fill="#2980B9" d="M387.638,73.144c-26.047,0-47.236,21.19-47.236,47.237s21.189,47.237,47.236,47.237
				s47.237-21.19,47.237-47.237S413.686,73.144,387.638,73.144z M387.638,142.396c-12.139,0-22.015-9.876-22.015-22.015
				c0-12.139,9.876-22.015,22.015-22.015c12.14,0,22.016,9.876,22.016,22.015C409.653,132.52,399.777,142.396,387.638,142.396z"/>
		</g>
	</g>
</g>
</svg>
