<?xml version="1.0"?>
<svg xmlns="http://www.w3.org/2000/svg" xmlns:xlink="http://www.w3.org/1999/xlink" xmlns:svgjs="http://svgjs.com/svgjs" version="1.1" width="512" height="512" x="0" y="0" viewBox="0 0 64 64" style="enable-background:new 0 0 512 512" xml:space="preserve" class=""><g><path xmlns="http://www.w3.org/2000/svg" d="m32 42c-2.241 0-4.305-.75-5.974-2h11.948c-1.669 1.25-3.733 2-5.974 2zm6-4h-12v-1c0-1.654 1.346-3 3-3h6c1.654 0 3 1.346 3 3zm-8-8v-2c0-1.103.897-2 2-2s2 .897 2 2v2c0 1.103-.897 2-2 2s-2-.897-2-2zm5.421 2.043c.359-.6.579-1.294.579-2.043v-2c0-2.206-1.794-4-4-4s-4 1.794-4 4v2c0 .749.22 1.443.579 2.043-2.557.217-4.579 2.344-4.579 4.957v.974c-1.25-1.669-2-3.733-2-5.974 0-5.514 4.486-10 10-10s10 4.486 10 10c0 2.241-.75 4.305-2 5.974v-.974c0-2.613-2.022-4.74-4.579-4.957z" fill="#159e49" data-original="#000000" style="" class=""/><path xmlns="http://www.w3.org/2000/svg" d="m18 17c-1.902 0-3.627-.765-4.889-2h9.779c-1.263 1.235-2.988 2-4.89 2zm0-14c3.859 0 7 3.14 7 7 0 1.075-.251 2.089-.685 3h-1.315v-6h-2v6h-2v-4h-2v4h-2v-2h-2v2h-1.315c-.434-.911-.685-1.925-.685-3 0-3.86 3.141-7 7-7z" fill="#159e49" data-original="#000000" style="" class=""/><path xmlns="http://www.w3.org/2000/svg" d="m5 35h-1.315c-.434-.911-.685-1.926-.685-3 0-3.86 3.141-7 7-7s7 3.14 7 7c0 1.074-.251 2.089-.685 3h-1.315v-6h-2v6h-2v-4h-2v4h-2v-2h-2zm9.889 2c-1.263 1.235-2.988 2-4.889 2s-3.626-.765-4.889-2z" fill="#159e49" data-original="#000000" style="" class=""/><path xmlns="http://www.w3.org/2000/svg" d="m18 61c-1.902 0-3.626-.765-4.889-2h9.779c-1.264 1.235-2.988 2-4.89 2zm6.315-4h-1.315v-6h-2v6h-2v-4h-2v4h-2v-2h-2v2h-1.315c-.434-.911-.685-1.926-.685-3 0-3.859 3.141-7 7-7s7 3.141 7 7c0 1.074-.251 2.089-.685 3z" fill="#159e49" data-original="#000000" style="" class=""/><path xmlns="http://www.w3.org/2000/svg" d="m46 17c-1.902 0-3.627-.765-4.889-2h9.779c-1.263 1.235-2.988 2-4.89 2zm0-14c3.859 0 7 3.14 7 7 0 1.075-.251 2.089-.685 3h-1.315v-6h-2v6h-2v-4h-2v4h-2v-2h-2v2h-1.315c-.434-.911-.685-1.925-.685-3 0-3.86 3.141-7 7-7z" fill="#159e49" data-original="#000000" style="" class=""/><path xmlns="http://www.w3.org/2000/svg" d="m54 39c-1.902 0-3.626-.765-4.889-2h9.779c-1.264 1.235-2.988 2-4.89 2zm6.315-4h-1.315v-6h-2v6h-2v-4h-2v4h-2v-2h-2v2h-1.315c-.434-.911-.685-1.926-.685-3 0-3.86 3.141-7 7-7s7 3.14 7 7c0 1.074-.251 2.089-.685 3z" fill="#159e49" data-original="#000000" style="" class=""/><path xmlns="http://www.w3.org/2000/svg" d="m46 61c-1.902 0-3.626-.765-4.889-2h9.779c-1.264 1.235-2.988 2-4.89 2zm6.315-4h-1.315v-6h-2v6h-2v-4h-2v4h-2v-2h-2v2h-1.315c-.434-.911-.685-1.926-.685-3 0-3.859 3.141-7 7-7s7 3.141 7 7c0 1.074-.251 2.089-.685 3z" fill="#159e49" data-original="#000000" style="" class=""/><path xmlns="http://www.w3.org/2000/svg" d="m26.941 9c.037.329.059.662.059 1s-.022.671-.059 1h10.118c-.037-.329-.059-.662-.059-1s.022-.671.059-1z" fill="#159e49" data-original="#000000" style="" class=""/><path xmlns="http://www.w3.org/2000/svg" d="m10 23c.559 0 1.103.058 1.634.156l2.798-4.897c-.617-.268-1.195-.608-1.732-1.001l-3.298 5.772c.199-.013.396-.03.598-.03z" fill="#159e49" data-original="#000000" style="" class=""/><path xmlns="http://www.w3.org/2000/svg" d="m14.432 45.741-2.798-4.897c-.531.098-1.075.156-1.634.156-.202 0-.399-.017-.598-.03l3.298 5.772c.537-.393 1.115-.733 1.732-1.001z" fill="#159e49" data-original="#000000" style="" class=""/><path xmlns="http://www.w3.org/2000/svg" d="m37.059 55c-.037-.329-.059-.662-.059-1s.022-.671.059-1h-10.118c.037.329.059.662.059 1s-.022.671-.059 1z" fill="#159e49" data-original="#000000" style="" class=""/><path xmlns="http://www.w3.org/2000/svg" d="m51.485 40.636-2.74 4.796c.646.207 1.255.491 1.829.831l3.019-5.283c-.729-.034-1.435-.148-2.108-.344z" fill="#159e49" data-original="#000000" style="" class=""/><path xmlns="http://www.w3.org/2000/svg" d="m48.745 18.569 2.74 4.796c.673-.196 1.379-.311 2.107-.344l-3.019-5.283c-.573.34-1.183.623-1.828.831z" fill="#159e49" data-original="#000000" style="" class=""/></g></svg>
